{"title":"Gran Torino[-08].XviD.Swe_Sub.avi","uid":5346704,"size":952765970,"categoryP":"video","categoryS":"movies","magnet":"?xt=urn:btih:01c1af240f958838a3901ec420075864a0a2af93&amp;dn=Gran+Torino%5B-08%5D.XviD.Swe_Sub.avi&amp;tr=udp%3A%2F%2Ftracker.openbittorrent.com%3A80&amp;tr=udp%3A%2F%2Fopen.demonii.com%3A1337&amp;tr=udp%3A%2F%2Ftracker.coppersurfer.tk%3A6969&amp;tr=udp%3A%2F%2Fexodus.desync.com%3A6969","seeders":0,"leechers":1,"uploader":"Zen_Bud","files":-1,"time":1265662692,"description":"General\nComplete name                    : Gran Torino[-08].Swe_Sub.avi\nFormat                           : AVI\nFormat/Info                      : Audio Video Interleave\nFile size                        : 909 MiB\nDuration                         : 1h 57mn\nOverall bit rate                 : 1 082 Kbps\n\nVideo\nID                               : 0\nFormat                           : MPEG-4 Visual\nCodec ID/Hint                    : XviD\nDuration                         : 1h 57mn\nBit rate                         : 941 Kbps\nWidth                            : 720 pixels\nHeight                           : 360 pixels\nDisplay aspect ratio             : 2.35:1\nFrame rate                       : 23.976 fps\nResolution                       : 8 bits\nColorimetry                      : 4:2:0\nScan type                        : Progressive\nBits/(Pixel*Frame)               : 0.151\nStream size                      : 790 MiB (87%)\nWriting library                  : XviD 1.1.2 (UTC 2006-11-01)\n\nAudio\nID                               : 1\nFormat                           : MPEG Audio\nFormat version                   : Version 1\nFormat profile                   : Layer 3\nMode                             : Joint stereo / MS Stereo\nCodec ID                         : 55\nCodec ID/Hint                    : MP3\nDuration                         : 1h 57mn\nBit rate mode                    : Constant\nBit rate                         : 128 Kbps\nChannel(s)                       : 2 channels\nSampling rate                    : 48.0 KHz\nStream size                      : 108 MiB (12%)\n\nWriting library                  : LAME3.98\n\n","torrent":{"xt":"urn:btih:01c1af240f958838a3901ec420075864a0a2af93","amp;dn":"Gran+Torino%5B-08%5D.XviD.Swe_Sub.avi","amp;tr":["udp%3A%2F%2Ftracker.openbittorrent.com%3A80","udp%3A%2F%2Fopen.demonii.com%3A1337","udp%3A%2F%2Ftracker.coppersurfer.tk%3A6969","udp%3A%2F%2Fexodus.desync.com%3A6969"],"infoHash":"01c1af240f958838a3901ec420075864a0a2af93","infoHashBuffer":{"type":"Buffer","data":[1,193,175,36,15,149,136,56,163,144,30,196,32,7,88,100,160,162,175,147]},"announce":[],"urlList":[]}}